<svg xmlns="http://www.w3.org/2000/svg" xmlns:xlink="http://www.w3.org/1999/xlink" width="1760" zoomAndPan="magnify" viewBox="0 0 1320 359.999987" height="480" preserveAspectRatio="xMidYMid meet" version="1.0"><path fill="#fb6917" d="M 166.679688 88.761719 C 157.613281 84.992188 140.027344 82.320312 130.367188 83.992188 C 97.300781 88.148438 73.4375 105.742188 62.335938 137.535156 C 58.222656 137.867188 54.375 138.195312 50.320312 139 C 24.769531 144.078125 4.351562 168.125 6.550781 194.644531 C 7.804688 208.953125 14.683594 222.175781 25.675781 231.410156 C 32.007812 236.746094 39.503906 240.523438 47.558594 242.433594 C 58.292969 244.921875 74.324219 244.597656 88.804688 244.304688 L 88.910156 244.300781 C 95.3125 244.171875 101.402344 244.046875 106.597656 244.179688 C 113.550781 244.355469 128.179688 244.613281 134.363281 244.082031 C 134.625 244.0625 134.886719 244.035156 135.144531 244.011719 C 130.949219 239.367188 114.90625 223.742188 109.886719 219.6875 C 106.597656 219.695312 102.535156 219.78125 98.078125 219.875 C 83.429688 220.1875 64.492188 220.59375 54.589844 218.648438 C 29.769531 213.765625 23.734375 181.664062 47.804688 166.214844 C 72.199219 155.109375 85.921875 166.699219 102.175781 182.996094 L 132.980469 214.183594 C 155.769531 237.300781 164.351562 244.855469 199.074219 244.578125 C 199.597656 244.574219 200.117188 244.570312 200.632812 244.566406 C 213.46875 244.476562 224.035156 244.398438 236.523438 238.839844 C 249.890625 232.890625 260.308594 221.8125 265.429688 208.097656 C 270.347656 194.984375 269.785156 180.441406 263.871094 167.746094 C 257.6875 153.878906 246.203125 143.070312 231.988281 137.746094 C 225.730469 135.460938 219.128906 134.265625 212.46875 134.214844 C 202.488281 112.050781 189.824219 98.382812 166.679688 88.761719 Z M 127.085938 170.652344 C 114.09375 157.585938 107.828125 150.132812 90.730469 142.464844 C 93.011719 136.84375 96.136719 131.605469 100.003906 126.929688 C 109.558594 115.5 122.074219 109.527344 136.769531 108.207031 C 159.152344 106.515625 180.917969 122.308594 189.03125 142.484375 C 190.648438 146.507812 191.613281 152.746094 193.933594 155.972656 C 196.605469 156.667969 204.910156 156.414062 208.148438 156.222656 C 226.390625 155.132812 244.027344 169.242188 243.8125 188.875 C 243.738281 196.800781 240.496094 204.371094 234.804688 209.886719 C 225.011719 219.421875 214.40625 219.695312 201.914062 219.632812 C 175.988281 219.882812 172.359375 216.234375 154.585938 198.339844 Z M 127.085938 170.652344 " fill-opacity="1" fill-rule="nonzero"/><path fill="#000000" d="M 721.988281 161.960938 C 715.371094 156.085938 709.148438 152.597656 699.746094 153.015625 C 677.5 155.515625 664.828125 172.5625 667.847656 194.546875 C 669.144531 204.003906 674.136719 212.5625 681.726562 218.34375 C 688.484375 223.410156 696.980469 225.574219 705.335938 224.359375 C 712.285156 223.296875 717.722656 220.191406 722.507812 215.136719 C 722.34375 222.921875 722.398438 230.082031 716.09375 235.605469 C 705.359375 245.003906 693.789062 241.113281 686.050781 231.003906 C 683.769531 231.929688 681.082031 232.949219 678.878906 233.964844 L 671.570312 237.3125 C 681.78125 253.632812 695.714844 258.136719 714.132812 253.839844 C 739.789062 247.851562 739.089844 222.210938 738.519531 201.214844 C 738.480469 199.710938 738.441406 198.234375 738.410156 196.789062 C 738.355469 190.984375 738.410156 185.25 738.464844 179.546875 C 738.542969 171.257812 738.617188 163.035156 738.363281 154.746094 L 722.523438 154.753906 C 722.519531 155 722.523438 155.335938 722.527344 155.730469 C 722.542969 157.722656 722.574219 161.183594 721.988281 161.960938 Z M 723.023438 186.507812 C 724.3125 197.328125 716.644531 207.164062 705.839844 208.542969 C 694.914062 209.933594 684.945312 202.152344 683.640625 191.207031 C 682.332031 180.265625 690.191406 170.351562 701.140625 169.136719 C 711.964844 167.933594 721.734375 175.6875 723.023438 186.507812 Z M 723.023438 186.507812 " fill-opacity="1" fill-rule="nonzero"/><path fill="#000000" d="M 642.734375 162.785156 C 634.121094 154.238281 627.1875 152.117188 614.9375 153.648438 C 604.878906 156.59375 598.019531 160.472656 592.574219 169.976562 C 574.039062 202.320312 612.328125 244.042969 642.734375 215.355469 L 642.730469 215.679688 C 642.6875 222.925781 642.648438 229.941406 636.886719 235.167969 C 626.339844 244.726562 614.402344 241.292969 606.488281 231.191406 C 602.320312 232.976562 597.371094 234.953125 593.355469 236.894531 C 589.136719 243.941406 610.191406 253.894531 616.050781 254.898438 C 635.585938 258.234375 657.597656 246.882812 658.242188 225.039062 C 658.902344 202.625 659.054688 177.375 658.691406 154.742188 L 642.910156 154.808594 Z M 643.394531 186.710938 C 644.585938 197.480469 636.890625 207.203125 626.140625 208.507812 C 619.085938 209.367188 612.113281 206.363281 607.882812 200.648438 C 603.652344 194.933594 602.816406 187.386719 605.695312 180.886719 C 608.570312 174.382812 614.71875 169.929688 621.789062 169.21875 C 632.566406 168.140625 642.199219 175.941406 643.394531 186.710938 Z M 643.394531 186.710938 " fill-opacity="1" fill-rule="nonzero"/><path fill="#000000" d="M 417.148438 126.402344 L 401.628906 126.347656 C 389.796875 145.726562 378.101562 165.183594 366.535156 184.71875 C 355.40625 165.855469 343.84375 144.804688 332.382812 126.414062 L 316.804688 126.472656 C 316.570312 158.890625 316.5 191.308594 316.589844 223.722656 L 332.695312 223.667969 C 333.007812 201.644531 333.035156 179.613281 332.78125 157.585938 C 342.121094 173.066406 351.246094 188.671875 360.15625 204.402344 C 361.128906 204.410156 362.121094 204.421875 363.121094 204.4375 C 366.339844 204.480469 369.648438 204.523438 372.761719 204.410156 C 381.558594 189.386719 390.964844 173.113281 400.25 158.421875 L 400.210938 187.109375 C 400.210938 190.921875 400.199219 194.773438 400.183594 198.636719 L 400.183594 198.722656 C 400.15625 207.101562 400.128906 215.542969 400.261719 223.789062 L 417.144531 223.789062 C 417.175781 216.332031 417.230469 208.75 417.28125 201.105469 C 417.453125 176.203125 417.628906 150.617188 417.148438 126.402344 Z M 417.148438 126.402344 " fill-opacity="1" fill-rule="nonzero"/><path fill="#fb6917" d="M 1315.15625 126.082031 C 1309.742188 126.152344 1304.320312 126.265625 1298.910156 126.417969 L 1298.808594 163.082031 C 1292.023438 156.488281 1286.019531 153.039062 1276.085938 153.101562 C 1267.378906 153.082031 1259.0625 156.644531 1253.0625 162.953125 C 1235.722656 180.890625 1240.707031 210.25 1262.6875 222.265625 C 1276.5625 227.519531 1288.296875 226.195312 1298.925781 215.25 L 1298.871094 223.902344 L 1315.292969 223.914062 Z M 1298.570312 184.484375 C 1301.226562 195.359375 1294.511719 206.3125 1283.617188 208.878906 C 1272.851562 211.417969 1262.058594 204.796875 1259.429688 194.042969 C 1256.8125 183.292969 1263.335938 172.433594 1274.070312 169.726562 C 1284.917969 166.984375 1295.921875 173.609375 1298.570312 184.484375 Z M 1298.570312 184.484375 " fill-opacity="1" fill-rule="nonzero"/><path fill="#000000" d="M 778.820312 153.378906 C 777.394531 153.410156 775.964844 153.484375 774.546875 153.601562 C 771.210938 154.527344 768.417969 155.3125 765.328125 156.921875 C 740.574219 169.839844 741.335938 208.570312 765.539062 221.550781 C 773.121094 225.5625 781.992188 226.363281 790.167969 223.773438 C 794.796875 222.300781 799.007812 219.734375 802.449219 216.289062 L 802.964844 216.039062 C 803.296875 218.910156 803.3125 220.820312 803.304688 223.71875 L 819.675781 223.703125 C 820.097656 202.117188 820.222656 176.296875 819.675781 154.710938 L 803.257812 154.773438 L 803.207031 163.128906 C 795.40625 155.507812 789.863281 153.203125 778.820312 153.378906 Z M 802.019531 197.023438 C 799.171875 203.785156 792.902344 208.484375 785.617188 209.320312 C 774.59375 210.582031 764.605469 202.761719 763.171875 191.757812 C 761.726562 180.753906 769.386719 170.628906 780.359375 169.019531 C 787.613281 167.953125 794.882812 170.882812 799.371094 176.6875 C 803.859375 182.488281 804.875 190.261719 802.019531 197.023438 Z M 802.019531 197.023438 " fill-opacity="1" fill-rule="nonzero"/><path fill="#000000" d="M 483.511719 163.046875 C 476.214844 155.992188 469.367188 152.605469 458.957031 152.96875 C 449.074219 154.402344 441.203125 157.554688 434.945312 165.835938 C 422.945312 181.707031 425.363281 207.203125 441.730469 219.195312 C 448.804688 224.277344 457.632812 226.273438 466.203125 224.734375 C 470.636719 223.964844 476.128906 221.882812 479.664062 219.027344 L 482.484375 216.289062 L 483.46875 216.574219 C 483.730469 218.976562 483.652344 220.742188 483.550781 223.023438 L 483.550781 223.03125 C 483.542969 223.265625 483.53125 223.503906 483.523438 223.75 L 499.851562 223.746094 L 499.90625 154.652344 C 494.472656 154.609375 489.035156 154.640625 483.601562 154.75 Z M 483.667969 186.105469 C 485.371094 197.191406 477.742188 207.558594 466.652344 209.226562 C 455.613281 210.886719 445.3125 203.296875 443.617188 192.257812 C 441.921875 181.21875 449.472656 170.886719 460.503906 169.15625 C 471.582031 167.414062 481.964844 175.011719 483.667969 186.105469 Z M 483.667969 186.105469 " fill-opacity="1" fill-rule="nonzero"/><path fill="#000000" d="M 914.515625 163.160156 C 906.554688 155.660156 902.042969 153.289062 890.769531 152.96875 C 855.304688 157.355469 848.109375 201.03125 872.941406 219.246094 C 879.71875 224.152344 888.171875 226.179688 896.4375 224.882812 C 901.765625 224.070312 906.792969 221.917969 911.050781 218.621094 L 913.628906 216.277344 L 914.453125 216.523438 C 914.761719 218.53125 914.667969 220.519531 914.570312 222.535156 L 914.570312 222.574219 L 914.515625 223.734375 L 930.675781 223.730469 L 930.691406 154.726562 L 914.613281 154.710938 Z M 914.738281 186.507812 C 916.195312 197.617188 908.363281 207.800781 897.25 209.230469 C 886.1875 210.660156 876.046875 202.851562 874.597656 191.777344 C 873.144531 180.703125 880.929688 170.542969 891.992188 169.066406 C 903.089844 167.582031 913.289062 175.398438 914.738281 186.507812 Z M 914.738281 186.507812 " fill-opacity="1" fill-rule="nonzero"/><path fill="#fb6917" d="M 1162.175781 186.726562 C 1160.8125 166.777344 1143.546875 151.707031 1123.605469 153.070312 C 1103.65625 154.433594 1088.59375 171.71875 1089.957031 191.675781 C 1091.320312 211.632812 1108.605469 226.699219 1128.546875 225.332031 C 1148.492188 223.960938 1163.542969 206.679688 1162.175781 186.726562 Z M 1146.082031 187.5625 C 1146.9375 198.519531 1138.835938 208.128906 1127.886719 209.128906 C 1120.6875 209.785156 1113.679688 206.515625 1109.5625 200.558594 C 1105.441406 194.609375 1104.839844 186.898438 1107.988281 180.378906 C 1111.140625 173.859375 1117.554688 169.539062 1124.777344 169.074219 C 1135.734375 168.367188 1145.234375 176.605469 1146.082031 187.5625 Z M 1146.082031 187.5625 " fill-opacity="1" fill-rule="nonzero"/><path fill="#fb6917" d="M 1023.546875 126.671875 C 1020.402344 126.394531 1017.230469 126.378906 1014.082031 126.632812 C 948.71875 137.429688 962.925781 234.332031 1027.886719 224.207031 C 1039.929688 222.328125 1048.378906 215.636719 1055.992188 206.519531 C 1051.589844 203.511719 1046.976562 200.453125 1042.65625 197.382812 L 1038.136719 201.847656 C 1030.527344 207.207031 1023.089844 209.914062 1013.558594 208.175781 C 1005.519531 206.6875 998.4375 201.976562 993.953125 195.136719 C 973.195312 163.976562 1011.703125 121.070312 1042.671875 154.429688 L 1055.929688 145.332031 C 1046.792969 134.441406 1038.238281 127.925781 1023.546875 126.671875 Z M 1023.546875 126.671875 " fill-opacity="1" fill-rule="nonzero"/><path fill="#000000" d="M 579.289062 218.261719 C 581.085938 192.167969 583.65625 154.878906 550.804688 153.050781 C 540.355469 153.945312 537.605469 155.050781 530.046875 161.902344 C 529.230469 160.519531 529.378906 159.351562 529.515625 158.257812 L 529.515625 158.253906 C 529.664062 157.0625 529.804688 155.960938 528.6875 154.761719 C 524.929688 154.203125 519.898438 154.4375 515.617188 154.636719 L 515.605469 154.636719 C 514.800781 154.671875 514.019531 154.707031 513.28125 154.738281 L 513.296875 223.785156 L 529.582031 223.730469 C 529.582031 220.996094 529.449219 217.808594 529.300781 214.371094 C 528.640625 198.871094 527.765625 178.28125 538.328125 170.859375 C 565.152344 159.625 563.746094 192.117188 562.832031 213.328125 C 562.660156 217.3125 562.503906 220.898438 562.558594 223.722656 L 578.921875 223.738281 C 579.03125 221.980469 579.15625 220.152344 579.289062 218.261719 Z M 579.289062 218.261719 " fill-opacity="1" fill-rule="nonzero"/><path fill="#fb6917" d="M 1234.40625 154.523438 L 1218.019531 154.703125 C 1218 156.386719 1217.984375 158.085938 1217.960938 159.792969 C 1217.890625 165.066406 1217.820312 170.402344 1217.992188 175.605469 C 1218.007812 176.117188 1218.027344 176.652344 1218.058594 177.210938 L 1218.058594 177.21875 C 1218.476562 188.867188 1219.277344 210.53125 1202.789062 209.832031 C 1198.441406 209.660156 1194.242188 208.304688 1190.609375 205.917969 C 1185.066406 197.394531 1185.496094 182.230469 1185.882812 168.703125 L 1185.882812 168.609375 C 1186.035156 163.601562 1186.167969 158.820312 1186.003906 154.683594 L 1170.136719 154.683594 C 1170.105469 157.597656 1169.964844 160.898438 1169.828125 164.433594 C 1169.089844 182.046875 1168.125 205.527344 1178.460938 216.363281 C 1190.007812 228.457031 1214.757812 228.179688 1226.152344 216.03125 C 1235.429688 206.675781 1234.945312 190.90625 1234.523438 177.253906 L 1234.523438 177.210938 C 1234.429688 174.335938 1234.351562 171.558594 1234.359375 168.957031 Z M 1234.40625 154.523438 " fill-opacity="1" fill-rule="nonzero"/><path fill="#000000" d="M 847.03125 126.246094 L 847.003906 126.246094 C 842.882812 126.257812 838.769531 126.269531 834.667969 125.855469 L 833.226562 126.859375 C 832.503906 131.5625 832.640625 144.328125 832.726562 153.246094 L 832.726562 153.339844 C 832.75 155.722656 832.773438 157.828125 832.773438 159.421875 L 832.867188 223.738281 L 847.878906 223.773438 L 849.066406 223.507812 C 849.710938 218.0625 849.574219 206.96875 849.472656 198.304688 L 849.464844 197.75 C 849.414062 195.0625 849.382812 192.628906 849.382812 190.707031 L 849.265625 126.242188 C 848.511719 126.242188 847.773438 126.246094 847.03125 126.246094 Z M 847.03125 126.246094 " fill-opacity="1" fill-rule="nonzero"/><path fill="#fb6917" d="M 1080.664062 126.234375 L 1064.300781 126.351562 C 1064.292969 136.363281 1064.261719 146.4375 1064.230469 156.535156 L 1064.222656 158.117188 L 1064.214844 159.753906 C 1064.148438 181.152344 1064.085938 202.632812 1064.316406 223.820312 L 1080.617188 223.742188 C 1080.933594 199.898438 1080.847656 175.683594 1080.746094 151.625 C 1080.710938 143.132812 1080.679688 134.664062 1080.664062 126.234375 Z M 1080.664062 126.234375 " fill-opacity="1" fill-rule="nonzero"/></svg>